<svg xmlns="http://www.w3.org/2000/svg" width="95" height="21" viewBox="0 0 95 21">
  <g id="Coupons" transform="translate(-43 -187)">
    <text id="Coupons-2" data-name="Coupons" transform="translate(72 204)" font-size="16" font-family="SegoeUI-Bold, Segoe UI" font-weight="700"><tspan x="0" y="0">Coupons</tspan></text>
    <path id="Path_15" data-name="Path 15" d="M1.5,6.107A1.607,1.607,0,0,1,3.107,4.5H17.893A1.608,1.608,0,0,1,19.5,6.107V8.7a.643.643,0,0,1-.321.557,1.928,1.928,0,0,0,0,3.341.643.643,0,0,1,.321.557V15.75a1.608,1.608,0,0,1-1.607,1.607H3.107A1.607,1.607,0,0,1,1.5,15.75V13.156a.643.643,0,0,1,.321-.557,1.928,1.928,0,0,0,0-3.341A.643.643,0,0,1,1.5,8.7Zm12.857-.964A.643.643,0,0,1,15,5.786v.643a.643.643,0,1,1-1.286,0V5.786A.643.643,0,0,1,14.357,5.143ZM15,9a.643.643,0,1,0-1.286,0v.643a.643.643,0,1,0,1.286,0Zm-.643,2.571a.643.643,0,0,1,.643.643v.643a.643.643,0,1,1-1.286,0v-.643A.643.643,0,0,1,14.357,11.571ZM15,15.429a.643.643,0,0,0-1.286,0v.643a.643.643,0,0,0,1.286,0Zm-9.643-4.5A.643.643,0,0,1,6,10.286h4.5a.643.643,0,1,1,0,1.286H6A.643.643,0,0,1,5.357,10.929ZM6,12.857a.643.643,0,1,0,0,1.286H8.571a.643.643,0,0,0,0-1.286Z" transform="translate(41.5 186.571)" fill-rule="evenodd"/>
  </g>
</svg>
