<svg xmlns="http://www.w3.org/2000/svg" width="111" height="21" viewBox="0 0 111 21">
  <g id="Dashboard_Tab" data-name="Dashboard Tab" transform="translate(-24 -210)">
    <path id="Path_1" data-name="Path 1" d="M3,6A3,3,0,0,1,6,3H8.25a3,3,0,0,1,3,3V8.25a3,3,0,0,1-3,3H6a3,3,0,0,1-3-3Zm9.75,0a3,3,0,0,1,3-3H18a3,3,0,0,1,3,3V8.25a3,3,0,0,1-3,3H15.75a3,3,0,0,1-3-3ZM3,15.75a3,3,0,0,1,3-3H8.25a3,3,0,0,1,3,3V18a3,3,0,0,1-3,3H6a3,3,0,0,1-3-3Zm9.75,0a3,3,0,0,1,3-3H18a3,3,0,0,1,3,3V18a3,3,0,0,1-3,3H15.75a3,3,0,0,1-3-3Z" transform="translate(21 210)" fill-rule="evenodd"/>
    <text id="Dashboard" transform="translate(53 227)" font-size="16" font-family="SegoeUI-Bold, Segoe UI" font-weight="700"><tspan x="0" y="0">Dashboard</tspan></text>
  </g>
</svg>
