<svg xmlns="http://www.w3.org/2000/svg" width="91" height="21" viewBox="0 0 91 21">
  <g id="Support" transform="translate(-43 -187)">
    <text id="Support-2" data-name="Support" transform="translate(72 204)" font-size="16" font-family="SegoeUI-Bold, Segoe UI" font-weight="700"><tspan x="0" y="0">Support</tspan></text>
    <g id="Group_4" data-name="Group 4" transform="translate(41.5 188.101)">
      <path id="Path_11" data-name="Path 11" d="M4.589,2.619a44.728,44.728,0,0,1,11.472,0,3.582,3.582,0,0,1,3.082,3.373,3.985,3.985,0,0,0-.934-.191,46.062,46.062,0,0,0-7.621,0A4.007,4.007,0,0,0,6.931,9.815v3.879a4.046,4.046,0,0,0,2.2,3.606l-2.4,2.4a.679.679,0,0,1-1.159-.48V15.573q-.493-.052-.984-.116a3.593,3.593,0,0,1-3.089-3.6V6.222a3.592,3.592,0,0,1,3.089-3.6Z"/>
      <path id="Path_12" data-name="Path 12" d="M15.11,7.5q-1.868,0-3.7.153A2.649,2.649,0,0,0,9,10.314v3.878a2.65,2.65,0,0,0,2.417,2.661q1.688.138,3.411.149l2.518,2.517a.679.679,0,0,0,1.159-.48V16.877l.3-.024a2.65,2.65,0,0,0,2.417-2.661V10.313a2.651,2.651,0,0,0-2.411-2.661Q16.963,7.5,15.11,7.5Z" transform="translate(-0.712 -0.498)"/>
    </g>
  </g>
</svg>
