<svg xmlns="http://www.w3.org/2000/svg" width="184" height="32" viewBox="0 0 184 32">
  <g id="Users" transform="translate(-19 -182)">
    <path id="Rectangle_29" data-name="Rectangle 29" d="M0,0H174a10,10,0,0,1,10,10V32a0,0,0,0,1,0,0H0a0,0,0,0,1,0,0V0A0,0,0,0,1,0,0Z" transform="translate(19 182)"/>
    <text id="Users-2" data-name="Users" transform="translate(72 204)" fill="#fff" font-size="16" font-family="SegoeUI-Bold, Segoe UI" font-weight="700"><tspan x="0" y="0">Users</tspan></text>
    <g id="Group_5" data-name="Group 5" transform="translate(41.5 186.464)">
      <path id="Path_13" data-name="Path 13" d="M7.327,6.214A3.173,3.173,0,1,1,10.5,9.429,3.194,3.194,0,0,1,7.327,6.214Zm6.346,2.571a2.539,2.539,0,1,1,2.538,2.571A2.555,2.555,0,0,1,13.673,8.786Zm-11.423,0a2.539,2.539,0,1,1,2.538,2.571A2.555,2.555,0,0,1,2.25,8.786Zm3.435,4.6a5.672,5.672,0,0,1,9.073-.745,5.83,5.83,0,0,1,1.418,4.5.643.643,0,0,1-.315.487,10.681,10.681,0,0,1-10.724,0,.643.643,0,0,1-.315-.487,5.878,5.878,0,0,1,.862-3.754Z" fill="#fff" fill-rule="evenodd"/>
      <path id="Path_14" data-name="Path 14" d="M4.57,14.254a9.374,9.374,0,0,0-1.121,5.135,7.349,7.349,0,0,1-1.512-.44l-.1-.04a.557.557,0,0,1-.32-.487L1.51,18.3A4.164,4.164,0,0,1,2.3,15.52,3.059,3.059,0,0,1,4.57,14.254Zm12.98,5.135a9.374,9.374,0,0,0-1.121-5.135A3.059,3.059,0,0,1,18.7,15.52,4.164,4.164,0,0,1,19.49,18.3l-.009.121a.557.557,0,0,1-.32.486l-.1.04A7.305,7.305,0,0,1,17.551,19.389Z" transform="translate(0 -2.679)" fill="#fff"/>
    </g>
  </g>
</svg>
